HIERARCHY
ROOT Hips
{
    OFFSET 0 0 0
    CHANNELS 6 Xposition Yposition Zposition Zrotation Yrotation Xrotation
    JOINT Chest
    {
        OFFSET 1.261052E-14 2.2 9.616505E-08
        CHANNELS 3 Zrotation Yrotation Xrotation
        JOINT Chest2
        {
            OFFSET 0 2.866667 0
            CHANNELS 3 Zrotation Yrotation Xrotation
            JOINT Neck
            {
                OFFSET 0 1.433333 0
                CHANNELS 3 Zrotation Yrotation Xrotation
                JOINT Head
                {
                    OFFSET -5.955877E-09 1.099063 -0.0454182
                    CHANNELS 3 Zrotation Yrotation Xrotation
                    End Site
                    {
                        OFFSET 1.742161E-07 0.215971 1.988305
                    }
                }
            }
            JOINT LeftCollar
            {
                OFFSET 0.6 0.333333 -7.86805E-08
                CHANNELS 3 Zrotation Yrotation Xrotation
                JOINT LeftShoulder
                {
                    OFFSET 1.399785 0.02316189 0.008118234
                    CHANNELS 3 Zrotation Yrotation Xrotation
                    JOINT LeftElbow
                    {
                        OFFSET 2.28797 0.1912422 -0.1364633
                        CHANNELS 3 Zrotation Yrotation Xrotation
                        JOINT LeftWrist
                        {
                            OFFSET 2.775776 0.232193 0.2848766
                            CHANNELS 3 Zrotation Yrotation Xrotation
                            End Site
                            {
                                OFFSET 0.9913487 0.0829258 0.1017416
                            }
                        }
                    }
                }
            }
            JOINT RightCollar
            {
                OFFSET -0.6 0.333333 7.86805E-08
                CHANNELS 3 Zrotation Yrotation Xrotation
                JOINT RightShoulder
                {
                    OFFSET -1.399785 0.02316189 0.008118574
                    CHANNELS 3 Zrotation Yrotation Xrotation
                    JOINT RightElbow
                    {
                        OFFSET -2.28797 0.1912422 -0.136463
                        CHANNELS 3 Zrotation Yrotation Xrotation
                        JOINT RightWrist
                        {
                            OFFSET -2.775776 0.232193 0.2848771
                            CHANNELS 3 Zrotation Yrotation Xrotation
                            End Site
                            {
                                OFFSET -0.9913487 0.0829258 0.1017418
                            }
                        }
                    }
                }
            }
        }
    }
    JOINT LeftHip
    {
        OFFSET 0.9032136 0.1000166 0.0003561888
        CHANNELS 3 Zrotation Yrotation Xrotation
        JOINT LeftKnee
        {
            OFFSET 0.09757304 -3.66482 0.4995777
            CHANNELS 3 Zrotation Yrotation Xrotation
            JOINT LeftAnkle
            {
                OFFSET 0.1137198 -4.272043 -0.4761516
                CHANNELS 3 Zrotation Yrotation Xrotation
                End Site
                {
                    OFFSET -1 0 8.754432E-08
                }
            }
        }
    }
    JOINT RightHip
    {
        OFFSET -0.9032136 0.1000166 0.0003564245
        CHANNELS 3 Zrotation Yrotation Xrotation
        JOINT RightKnee
        {
            OFFSET -0.09757292 -3.66482 0.4995777
            CHANNELS 3 Zrotation Yrotation Xrotation
            JOINT RightAnkle
            {
                OFFSET -0.1137199 -4.272043 -0.4761516
                CHANNELS 3 Zrotation Yrotation Xrotation
                End Site
                {
                    OFFSET -1 0 8.754432E-08
                }
            }
        }
    }
}
MOTION
Frames:    10
Frame Time:    0.016667
-1.083356    7.96067    2.164013    176.5508    -8.43981    171.8341    -4.37788    35.0066    -2.899765    -3.666138    -4.91954    -7.028261    -0.01858487    7.007909    1.95366    -0.4319378    10.33857    8.006621    -7.159207    3.584889    -0.5387274    -38.03902    18.16609    1.883956    -1.522555    -40.82434    4.134871    1.005975E-06    9.1898E-08    -1.796825E-08    5.475316    10.09233    0.5190765    34.43375    3.447951    5.705266    3.984976    56.99839    7.377597    -6.22271E-07    -6.048422E-07    -2.399694E-07    15.9222    -14.17795    -9.683181    0.09760217    0.5379509    20.64933    -21.39553    -7.507452    -2.529913    -16.12478    -4.03888    17.65677    -0.1101888    -0.5702808    21.95265    12.20043    5.781009    -22.6913
-1.072491    7.967731    2.167916    176.7624    -6.452633    171.9435    -4.395992    32.59426    -3.348691    -3.509613    -4.612648    -7.287675    -0.005246048    5.459665    2.14089    -0.2213885    5.341741    8.795048    -6.963408    2.956724    -0.4815646    -36.38251    14.4798    2.28122    -1.204842    -37.16286    3.627921    2.10859E-07    1.614806E-09    -2.191699E-07    5.351056    9.565923    0.4771548    31.43335    3.952948    5.786615    2.822244    51.13084    5.940601    -3.030455E-07    -2.033738E-08    9.398813E-07    16.2736    -13.5324    -8.972845    0.09575547    0.5330055    20.45098    -21.42545    -7.655671    -3.044036    -16.11372    -3.317182    16.58063    -0.1126456    -0.5763475    22.19851    12.43318    6.090925    -22.40876
-1.063952    7.974472    2.173216    176.9638    -4.494386    172.0841    -4.342345    30.04777    -3.747355    -3.307611    -4.282339    -7.532635    4.585796E-06    3.776533    2.358808    0.005971691    -0.1445476    9.698774    -6.775315    2.34132    -0.4256786    -34.81736    10.61675    2.763484    -0.8954979    -32.81186    3.085837    6.792419E-07    3.562101E-07    1.406504E-06    5.200819    8.988194    0.4328872    28.96822    4.249734    5.830981    2.08452    45.98796    4.954799    4.12695E-08    1.154949E-07    -2.55065E-08    16.59398    -12.89076    -8.30205    0.09415734    0.5286929    20.27821    -21.42645    -7.833443    -3.555326    -16.11973    -2.623745    15.48747    -0.1149893    -0.5820684    22.43076    12.6764    6.393231    -22.06978
-1.057729    7.980877    2.179604    177.153    -2.584399    172.2484    -4.241135    27.36323    -4.122847    -3.073885    -3.926941    -7.773008    -0.006059075    2.057387    2.610696    0.2373178    -5.723682    10.68571    -6.591309    1.740919    -0.3705542    -33.34972    6.566718    3.318448    -0.6088753    -27.7065    2.513617    1.867173E-07    2.771593E-07    -2.819892E-07    5.030635    8.326692    0.3863685    26.81272    3.725234    5.918722    1.67591    42.37553    4.366751    1.443857E-07    1.220657E-07    -2.709537E-07    16.87995    -12.25411    -7.672283    0.09280205    0.5250011    20.13047    -21.39869    -8.046045    -4.055846    -16.13587    -1.950253    14.39367    -0.1171867    -0.5873753    22.64656    12.92943    6.669276    -21.68831
-1.053756    7.986921    2.186728    177.3282    -0.7419754    172.4283    -4.110277    24.53694    -4.505221    -2.818671    -3.545449    -8.024877    -0.02553957    0.3561361    2.895782    0.4666775    -11.14997    11.75353    -6.410799    1.15799    -0.3160084    -32.01016    2.292385    3.940686    -0.3582587    -21.74892    1.909715    -2.229413E-07    6.093148E-07    9.1188E-07    4.861582    7.584785    0.3391486    24.9418    2.55088    6.005435    1.426359    39.78503    3.985527    3.109305E-08    -1.549336E-07    -5.529522E-07    17.12924    -11.62342    -7.084819    0.09167585    0.5219122    20.00695    -21.34286    -8.299246    -4.537736    -16.15616    -1.288241    13.31649    -0.1192142    -0.5922197    22.84382    13.19144    6.901573    -21.27935
-1.051916    7.99257    2.194203    177.487    1.013545    172.6152    -3.94618    21.5719    -4.888094    -2.539633    -3.137688    -8.285186    -0.05712352    -1.29006    3.178304    0.6956835    -16.37349    12.80433    -6.238501    0.5935991    -0.2625099    -30.87099    -2.368628    4.643026    -0.1554502    -14.66511    1.252975    1.641095E-07    5.027004E-07    7.371391E-07    4.687222    6.777423    0.2913933    23.2347    0.9950983    6.079292    1.249175    37.71592    3.701204    4.188754E-08    -1.031211E-06    -4.066601E-07    17.34065    -10.9997    -6.540977    0.09077393    0.5194218    19.90746    -21.26021    -8.599498    -4.993599    -16.17539    -0.62902    12.27377    -0.1210531    -0.596574    23.02139    13.46146    7.073581    -20.85901
-1.052041    7.997788    2.201622    177.6276    2.662858    172.8004    -3.747258    18.47103    -5.265906    -2.234716    -2.703606    -8.550124    -0.0975655    -2.884564    3.436486    0.9334805    -21.51615    13.76652    -6.079364    0.04670291    -0.2103333    -29.98218    -7.202029    5.411925    -0.03215909    -6.89324    0.5789824    -8.296169E-07    -5.219625E-08    -4.063638E-08    4.493944    5.923125    0.2432308    21.57782    -0.6524907    6.148966    1.095208    35.72606    3.442422    2.810073E-08    3.893258E-08    -4.903443E-08    17.51392    -10.38395    -6.041465    0.09008329    0.5175127    19.83123    -21.15251    -8.953638    -5.416058    -16.18913    0.03619283    11.28358    -0.1227002    -0.6004425    23.17932    13.73837    7.169876    -20.44453
-1.053912    8.002533    2.206632    177.7476    4.186615    172.9745    -3.517835    15.235    -5.655273    -1.904295    -2.243324    -8.829901    -0.1468258    -4.435652    3.690792    1.180496    -26.49826    14.64786    -5.937906    -0.4820957    -0.1595641    -28.9585    -8.050175    5.82425    -0.02468483    -6.078031    0.5099734    -5.287004E-07    2.069252E-07    -1.548811E-08    4.283586    5.031116    0.1954687    19.97016    -2.210411    6.22654    0.9421785    33.5318    3.17166    1.576223E-07    -3.720542E-07    9.99748E-07    17.64681    -9.777925    -5.576232    0.08965207    0.5163078    19.78315    -21.01724    -9.373499    -5.813173    -16.19436    0.7167369    10.38989    -0.1239091    -0.603267    23.29478    14.02206    7.17584    -20.05597
-1.057271    8.006754    2.207198    177.8446    5.565516    173.1281    -3.256945    11.8667    -6.068445    -1.544762    -1.757342    -9.13202    -0.2033026    -5.90514    3.944967    1.425869    -31.05429    15.43724    -5.821062    -0.9951335    -0.1102246    -28.15617    -8.595802    6.195871    -0.02065646    -5.586129    0.4684352    5.20814E-07    -9.9849E-08    1.248171E-07    4.053938    4.109902    0.1488712    18.39732    -3.617002    6.312531    0.7901617    31.08501    2.885506    -5.404801E-07    1.806357E-06    8.465669E-09    17.73745    -9.183237    -5.136145    0.08950124    0.5158839    19.76626    -20.85205    -9.869999    -6.190485    -16.18869    1.421914    9.63172    -0.1245019    -0.6046413    23.35099    14.31273    7.078101    -19.71435
-1.061829    8.010405    2.203369    177.9161    6.780259    173.2519    -2.960088    8.371703    -6.494895    -1.149966    -1.246285    -9.446816    -0.2615969    -7.203753    4.189753    1.647843    -34.83278    16.15179    -5.740126    -1.502745    -0.06214828    -27.69233    -8.899302    6.522615    -0.02002973    -5.504797    0.4615748    7.267621E-08    1.730802E-07    2.720506E-07    3.79908    3.168602    0.1042652    16.81981    -4.955231    6.395975    0.6542405    28.60834    2.610502    3.825011E-08    2.480423E-07    -1.081741E-07    17.78731    -8.60085    -4.722477    0.089594    0.5161483    19.77678    -20.65997    -10.44923    -6.537208    -16.16849    2.1602    9.020592    -0.1245707    -0.6048002    23.3575    14.6094    6.864017    -19.43929
